<svg width="32" height="35" viewBox="0 0 32 35" fill="none" xmlns="http://www.w3.org/2000/svg">
<path d="M17.4146 27.2965C17.4146 27.2965 24.9571 19.0469 26.8427 16.9845C28.7283 14.9221 29.6711 9.7661 26.3713 6.15694C23.0714 2.54775 18.3574 3.57895 16.4718 5.64134C14.5862 7.70372 4.6867 18.5313 3.74388 19.5625C2.80108 20.5937 1.38686 24.2029 4.21529 27.2965C7.04371 30.3901 10.3436 28.8433 11.2864 27.8121C12.2292 26.7809 22.6 15.4377 23.5428 14.4065C24.4857 13.3753 24.9571 10.7974 23.5428 9.25051C22.1286 7.70373 19.7716 8.21932 18.8288 9.25051C17.886 10.2818 9.87218 19.0469 9.87218 19.0469" stroke="app-theme" stroke-width="2" stroke-linecap="round" stroke-linejoin="round"/>
</svg>
