<svg width="20" height="21" viewBox="0 0 20 21" fill="none" xmlns="http://www.w3.org/2000/svg">
<path d="M10.0001 13.7045C10.8841 13.7045 11.732 13.3533 12.3571 12.7282C12.9822 12.1031 13.3334 11.2552 13.3334 10.3712C13.3334 9.48712 12.9822 8.63927 12.3571 8.01415C11.732 7.38903 10.8841 7.03784 10.0001 7.03784C9.11603 7.03784 8.26818 7.38903 7.64306 8.01415C7.01794 8.63927 6.66675 9.48712 6.66675 10.3712C6.66675 11.2552 7.01794 12.1031 7.64306 12.7282C8.26818 13.3533 9.11603 13.7045 10.0001 13.7045V13.7045Z" stroke="#E6A500" stroke-width="2" stroke-linecap="round" stroke-linejoin="round"/>
<path d="M14.5834 5.78784L15.8334 4.53784M13.3334 10.6928C12.8301 11.065 12.2098 11.2441 11.5856 11.1976C10.9613 11.1511 10.3745 10.882 9.93187 10.4394C9.48923 9.99675 9.22018 9.40992 9.17367 8.78567C9.12715 8.16141 9.30626 7.54119 9.67841 7.03784L13.3334 10.6928ZM10.0001 2.03784V3.70451V2.03784ZM10.0001 17.0378V18.7045V17.0378ZM4.16675 4.53784L5.41675 5.78784L4.16675 4.53784ZM14.5834 14.9545L15.8334 16.2045L14.5834 14.9545ZM1.66675 10.3712H3.33341H1.66675ZM16.6667 10.3712H18.3334H16.6667ZM4.16675 16.2045L5.41675 14.9545L4.16675 16.2045Z" stroke="#E6A500" stroke-width="1.5" stroke-linecap="round" stroke-linejoin="round"/>
</svg>
