<svg width="60" height="30" viewBox="0 0 60 30" fill="none" xmlns="http://www.w3.org/2000/svg">
<path d="M35.8528 3.49442H23.145V26.3815H35.8528V3.49442Z" fill="#FF5F00"/>
<path d="M23.9523 14.938C23.9523 10.2878 26.1308 6.16329 29.4792 3.49448C27.0183 1.55352 23.912 0.380859 20.5232 0.380859C12.4951 0.380859 6 6.89114 6 14.938C6 22.9849 12.4951 29.4951 20.5232 29.4951C23.912 29.4951 27.0183 28.3225 29.4792 26.3815C26.1308 23.7532 23.9523 19.5882 23.9523 14.938Z" fill="#EB001B"/>
<path d="M52.9997 14.938C52.9997 22.9848 46.5046 29.4951 38.4765 29.4951C35.0877 29.4951 31.9814 28.3225 29.5205 26.3815C32.9093 23.7127 35.0474 19.5882 35.0474 14.938C35.0474 10.2878 32.8689 6.16326 29.5205 3.49445C31.9814 1.55349 35.0877 0.380829 38.4765 0.380829C46.5046 0.380829 52.9997 6.93154 52.9997 14.938Z" fill="#F79E1B"/>
</svg>
