<svg width="60" height="30" viewBox="0 0 60 30" fill="none" xmlns="http://www.w3.org/2000/svg">
<path fill-rule="evenodd" clip-rule="evenodd" d="M5.54835 7.00277C6.08437 6.99959 7.67742 6.85725 8.3522 9.11657C8.80675 10.6385 9.5308 13.1314 10.5244 16.5954H10.929C11.9945 12.9434 12.7265 10.4505 13.1249 9.11657C13.8067 6.83372 15.5112 7.00282 16.193 7.00282L21.4534 7.00282V23.2364H16.0919V13.6697H15.7324L12.7436 23.2364H8.70978L5.72101 13.6626H5.36149V23.2364H0V7.00282L5.54835 7.00277ZM29.1524 7.00282V16.5767H29.5801L33.2157 8.70416C33.9214 7.13751 35.4255 7.00282 35.4255 7.00282H40.6138V23.2364H35.1404V13.6626H34.7127L31.1484 21.5351C30.4426 23.0947 28.8672 23.2364 28.8672 23.2364H23.6789V7.00282H29.1524ZM59.5325 14.7171C58.7691 16.8635 56.3714 18.4007 53.7169 18.4007H47.9768V23.2364H42.7719V14.7171H59.5325Z" fill="#0F754E"/>
<path fill-rule="evenodd" clip-rule="evenodd" d="M53.9684 7.00275H42.4995C42.7725 10.6169 45.9098 13.7109 49.1576 13.7109H59.8948C60.5144 10.7071 58.3813 7.00275 53.9684 7.00275Z" fill="url(#paint0_linear_6745_3574)"/>
<defs>
<linearGradient id="paint0_linear_6745_3574" x1="60" y1="11.2224" x2="42.4995" y2="11.2224" gradientUnits="userSpaceOnUse">
<stop stop-color="#1F5CD7"/>
<stop offset="1" stop-color="#02AEFF"/>
</linearGradient>
</defs>
</svg>
