<svg width="60" height="30" viewBox="0 0 60 30" fill="none" xmlns="http://www.w3.org/2000/svg">
<path d="M26.2663 23.8038H21.73L24.5673 6.31696H29.1035L26.2663 23.8038Z" fill="#00579F"/>
<path d="M42.7113 6.74445C41.8166 6.39063 40.3974 5.99997 38.6426 5.99997C34.1628 5.99997 31.0082 8.38103 30.9888 11.7852C30.9516 14.2968 33.2474 15.6918 34.9645 16.5293C36.7196 17.385 37.3162 17.9436 37.3162 18.7064C37.2983 19.8779 35.898 20.4179 34.5919 20.4179C32.7808 20.4179 31.8104 20.1395 30.3357 19.4877L29.7383 19.2083L29.1035 23.1337C30.1675 23.6168 32.1277 24.0456 34.1628 24.0644C38.9227 24.0644 42.0215 21.7201 42.0582 18.0924C42.0763 16.1018 40.864 14.5765 38.2504 13.3301C36.6638 12.53 35.6921 11.9904 35.6921 11.1718C35.7107 10.4276 36.5139 9.66527 38.305 9.66527C39.7797 9.62793 40.8633 9.98126 41.6841 10.3348L42.0944 10.5205L42.7113 6.74445Z" fill="#00579F"/>
<path d="M48.7407 17.6088C49.1142 16.6042 50.5518 12.7161 50.5518 12.7161C50.5329 12.7535 50.9246 11.693 51.1486 11.042L51.4657 12.5488C51.4657 12.5488 52.3247 16.7345 52.5112 17.6088C51.8023 17.6088 49.6367 17.6088 48.7407 17.6088ZM54.3402 6.31696H50.8313C49.7493 6.31696 48.9272 6.63295 48.4603 7.76784L41.7222 23.8035H46.482C46.482 23.8035 47.2657 21.6452 47.4341 21.1804C47.9563 21.1804 52.5867 21.1804 53.2584 21.1804C53.3886 21.7943 53.7997 23.8035 53.7997 23.8035H57.9999L54.3402 6.31696Z" fill="#00579F"/>
<path d="M17.9411 6.31696L13.4985 18.2413L13.013 15.8229C12.1917 13.0324 9.61579 10.0005 6.74121 8.49304L10.8105 23.7852H15.6075L22.7379 6.31696H17.9411Z" fill="#00579F"/>
<path d="M9.37323 6.31696H2.07467L2 6.67028C7.69333 8.12142 11.4639 11.6193 13.0131 15.8236L11.4265 7.78688C11.1652 6.67003 10.3625 6.3538 9.37323 6.31696Z" fill="#FAA61A"/>
</svg>
