<svg width="20" height="20" viewBox="0 0 20 20" fill="none">
<path opacity="0.7" d="M16.25 2.5H3.75C3.05965 2.5 2.5 3.05965 2.5 3.75V16.25C2.5 16.9404 3.05965 17.5 3.75 17.5H16.25C16.9404 17.5 17.5 16.9404 17.5 16.25V3.75C17.5 3.05965 16.9404 2.5 16.25 2.5Z" stroke="app-theme" stroke-width="2" stroke-linejoin="round"/>
<path opacity="0.6" d="M10 11.9271V10.2604C11.3807 10.2604 12.5 9.14115 12.5 7.76044C12.5 6.37973 11.3807 5.26044 10 5.26044C8.61929 5.26044 7.5 6.37973 7.5 7.76044" stroke="app-theme" stroke-width="2" stroke-linecap="round" stroke-linejoin="round"/>
<path opacity="0.6" fill-rule="evenodd" clip-rule="evenodd" d="M9.99992 15.6771C10.5752 15.6771 11.0416 15.2107 11.0416 14.6354C11.0416 14.0601 10.5752 13.5938 9.99992 13.5938C9.42463 13.5938 8.95825 14.0601 8.95825 14.6354C8.95825 15.2107 9.42463 15.6771 9.99992 15.6771Z" fill="app-theme"/>
</svg>
