<svg width="20" height="20" viewBox="0 0 20 20" fill="none">
<path d="M9.95752 12.1167C7.08253 12.1167 4.65674 12.5865 4.65674 14.3996C4.65674 16.2135 7.0982 16.6668 9.95752 16.6668C12.8325 16.6668 15.2583 16.197 15.2583 14.3838C15.2583 12.57 12.8168 12.1167 9.95752 12.1167Z" fill="app-theme"/>
<path opacity="0.4" d="M9.95745 10.3892C11.9042 10.3892 13.4652 8.81926 13.4652 6.8613C13.4652 4.90259 11.9042 3.33337 9.95745 3.33337C8.01069 3.33337 6.44971 4.90259 6.44971 6.8613C6.44971 8.81926 8.01069 10.3892 9.95745 10.3892Z" fill="app-theme"/>
<path opacity="0.4" d="M17.5733 7.68281C18.077 5.70159 16.6003 3.92224 14.72 3.92224C14.5155 3.92224 14.32 3.94476 14.129 3.98303C14.1036 3.98903 14.0753 4.00179 14.0603 4.0243C14.0432 4.05282 14.0559 4.0911 14.0745 4.11586C14.6394 4.91285 14.964 5.8832 14.964 6.92485C14.964 7.92296 14.6662 8.85354 14.1439 9.62576C14.0902 9.70531 14.1379 9.81263 14.2327 9.82914C14.364 9.8524 14.4983 9.86441 14.6356 9.86816C16.0049 9.90419 17.2338 9.01789 17.5733 7.68281Z" fill="app-theme"/>
<path d="M19.0076 12.3475C18.7569 11.8102 18.1517 11.4417 17.2317 11.2608C16.7974 11.1543 15.6222 11.0042 14.5291 11.0244C14.5127 11.0267 14.5037 11.0379 14.5022 11.0455C14.5 11.056 14.5045 11.074 14.5261 11.0852C15.0313 11.3366 16.984 12.4301 16.7385 14.7362C16.728 14.836 16.8079 14.9223 16.9071 14.9073C17.3877 14.8383 18.6241 14.5711 19.0076 13.7389C19.2195 13.2991 19.2195 12.788 19.0076 12.3475Z" fill="app-theme"/>
<path opacity="0.4" d="M5.87057 3.98315C5.6803 3.94413 5.48406 3.92236 5.27961 3.92236C3.39926 3.92236 1.92259 5.70171 2.427 7.68294C2.76576 9.01801 3.9947 9.90431 5.36392 9.86829C5.50122 9.86453 5.63627 9.85177 5.76685 9.82926C5.86162 9.81275 5.90937 9.70543 5.85565 9.62589C5.33333 8.85291 5.03561 7.92308 5.03561 6.92497C5.03561 5.88257 5.36094 4.91222 5.92579 4.11598C5.9437 4.09122 5.95713 4.05294 5.93922 4.02443C5.9243 4.00116 5.89669 3.98915 5.87057 3.98315Z" fill="app-theme"/>
<path d="M2.76788 11.2606C1.84786 11.4414 1.24346 11.8099 0.992746 12.3473C0.780087 12.7878 0.780087 13.2988 0.992746 13.7394C1.37628 14.5709 2.61268 14.8388 3.09321 14.9071C3.19245 14.9221 3.27155 14.8365 3.2611 14.736C3.01561 12.4306 4.96833 11.3371 5.47424 11.0857C5.49513 11.0737 5.49961 11.0565 5.49737 11.0452C5.49588 11.0377 5.48767 11.0264 5.47125 11.0249C4.37737 11.0039 3.2029 11.154 2.76788 11.2606Z" fill="app-theme"/>
</svg>
