<svg width="20" height="20" viewBox="0 0 20 20" fill="none">
<path opacity="0.4" d="M9.99257 15.5179L4.58279 18.22C4.17426 18.4418 3.66465 18.2937 3.43616 17.8869C3.36942 17.759 3.33413 17.6168 3.33325 17.4723V11.424C3.33325 12.0236 3.67136 12.3938 4.56074 12.8083L9.99257 15.5179Z" fill="app-theme"/>
<path fill-rule="evenodd" clip-rule="evenodd" d="M7.41263 1.66663H12.5578C14.8143 1.66663 16.6445 2.555 16.6666 4.82777V17.4723C16.6657 17.6145 16.6304 17.7542 16.5637 17.8795C16.4565 18.0838 16.2715 18.2355 16.0511 18.2998C15.8307 18.364 15.5939 18.3352 15.395 18.22L9.99257 15.5179L4.56074 12.8083C3.67136 12.3938 3.33325 12.0236 3.33325 11.424V4.82777C3.33325 2.555 5.16346 1.66663 7.41263 1.66663ZM6.85402 8.01852H13.1238C13.4851 8.01852 13.7779 7.72353 13.7779 7.35964C13.7779 6.99575 13.4851 6.70076 13.1238 6.70076H6.85402C6.49273 6.70076 6.19985 6.99575 6.19985 7.35964C6.19985 7.72353 6.49273 8.01852 6.85402 8.01852Z" fill="app-theme"/>
</svg>
