<svg width="20" height="20" viewBox="0 0 20 20" fill="none">
<path opacity="0.4" d="M18.3332 13.2835C18.3332 15.6085 16.4665 17.4919 14.1415 17.5002H14.1332H5.87484C3.55817 17.5002 1.6665 15.6252 1.6665 13.3002V13.2919C1.6665 13.2919 1.6715 9.60354 1.67817 7.74854C1.679 7.4002 2.079 7.2052 2.3515 7.42187C4.3315 8.9927 7.87234 11.8569 7.9165 11.8944C8.50817 12.3685 9.25817 12.636 10.0248 12.636C10.7915 12.636 11.5415 12.3685 12.1332 11.8852C12.1773 11.856 15.639 9.0777 17.649 7.48104C17.9223 7.26354 18.324 7.45854 18.3248 7.80604C18.3332 9.64687 18.3332 13.2835 18.3332 13.2835Z" fill="app-theme"/>
<path d="M17.8967 4.72797C17.1751 3.36797 15.7551 2.49963 14.1917 2.49963H5.87507C4.31173 2.49963 2.89173 3.36797 2.17007 4.72797C2.0084 5.03213 2.08507 5.4113 2.35423 5.6263L8.54173 10.5755C8.97507 10.9255 9.50007 11.0996 10.0251 11.0996C10.0284 11.0996 10.0309 11.0996 10.0334 11.0996C10.0359 11.0996 10.0392 11.0996 10.0417 11.0996C10.5667 11.0996 11.0917 10.9255 11.5251 10.5755L17.7126 5.6263C17.9817 5.4113 18.0584 5.03213 17.8967 4.72797Z" fill="app-theme"/>
</svg>
