<svg width="248" viewBox="0 0 248 65" fill="none">
<path d="M21.548 29.176V34H4.88V9.052H10.496V29.176H21.548ZM42.5172 24.496C42.5172 25.984 42.3012 27.352 41.8692 28.6C41.4372 29.824 40.8132 30.88 39.9972 31.768C39.1812 32.632 38.1972 33.304 37.0452 33.784C35.9172 34.264 34.6452 34.504 33.2292 34.504C31.8372 34.504 30.5652 34.264 29.4132 33.784C28.2852 33.304 27.3132 32.632 26.4972 31.768C25.6812 30.88 25.0452 29.824 24.5892 28.6C24.1332 27.352 23.9052 25.984 23.9052 24.496C23.9052 23.008 24.1332 21.652 24.5892 20.428C25.0692 19.204 25.7172 18.16 26.5332 17.296C27.3732 16.432 28.3572 15.76 29.4852 15.28C30.6372 14.8 31.8852 14.56 33.2292 14.56C34.5972 14.56 35.8452 14.8 36.9732 15.28C38.1252 15.76 39.1092 16.432 39.9252 17.296C40.7412 18.16 41.3772 19.204 41.8332 20.428C42.2892 21.652 42.5172 23.008 42.5172 24.496ZM37.0452 24.496C37.0452 22.84 36.7092 21.544 36.0372 20.608C35.3892 19.648 34.4532 19.168 33.2292 19.168C32.0052 19.168 31.0572 19.648 30.3852 20.608C29.7132 21.544 29.3772 22.84 29.3772 24.496C29.3772 26.152 29.7132 27.472 30.3852 28.456C31.0572 29.416 32.0052 29.896 33.2292 29.896C34.4532 29.896 35.3892 29.416 36.0372 28.456C36.7092 27.472 37.0452 26.152 37.0452 24.496ZM62.9922 15.064C61.9122 18.712 60.7842 22.132 59.6082 25.324C58.4322 28.516 57.1482 31.612 55.7562 34.612C55.2522 35.692 54.7482 36.604 54.2442 37.348C53.7402 38.116 53.1882 38.74 52.5882 39.22C51.9882 39.724 51.3042 40.084 50.5362 40.3C49.7922 40.54 48.9162 40.66 47.9082 40.66C47.0682 40.66 46.2882 40.576 45.5682 40.408C44.8722 40.264 44.2962 40.096 43.8402 39.904L44.7762 35.62C45.3282 35.812 45.8202 35.944 46.2522 36.016C46.6842 36.088 47.1402 36.124 47.6202 36.124C48.5802 36.124 49.3122 35.86 49.8162 35.332C50.3442 34.828 50.7882 34.12 51.1482 33.208C49.9242 30.808 48.7002 28.12 47.4762 25.144C46.2522 22.144 45.1002 18.784 44.0202 15.064H49.7082C49.9482 16 50.2242 17.02 50.5362 18.124C50.8722 19.204 51.2202 20.308 51.5802 21.436C51.9402 22.54 52.3002 23.62 52.6602 24.676C53.0442 25.732 53.4042 26.692 53.7402 27.556C54.0522 26.692 54.3762 25.732 54.7122 24.676C55.0482 23.62 55.3722 22.54 55.6842 21.436C56.0202 20.308 56.3322 19.204 56.6202 18.124C56.9322 17.02 57.2082 16 57.4482 15.064H62.9922ZM72.7521 30.256C73.2801 30.256 73.7841 30.244 74.2641 30.22C74.7441 30.196 75.1281 30.16 75.4161 30.112V26.044C75.2001 25.996 74.8761 25.948 74.4441 25.9C74.0121 25.852 73.6161 25.828 73.2561 25.828C72.7521 25.828 72.2721 25.864 71.8161 25.936C71.3841 25.984 71.0001 26.092 70.6641 26.26C70.3281 26.428 70.0641 26.656 69.8721 26.944C69.6801 27.232 69.5841 27.592 69.5841 28.024C69.5841 28.864 69.8601 29.452 70.4121 29.788C70.9881 30.1 71.7681 30.256 72.7521 30.256ZM72.3201 14.56C73.9041 14.56 75.2241 14.74 76.2801 15.1C77.3361 15.46 78.1761 15.976 78.8001 16.648C79.4481 17.32 79.9041 18.136 80.1681 19.096C80.4321 20.056 80.5641 21.124 80.5641 22.3V33.46C79.7961 33.628 78.7281 33.82 77.3601 34.036C75.9921 34.276 74.3361 34.396 72.3921 34.396C71.1681 34.396 70.0521 34.288 69.0441 34.072C68.0601 33.856 67.2081 33.508 66.4881 33.028C65.7681 32.524 65.2161 31.876 64.8321 31.084C64.4481 30.292 64.2561 29.32 64.2561 28.168C64.2561 27.064 64.4721 26.128 64.9041 25.36C65.3601 24.592 65.9601 23.98 66.7041 23.524C67.4481 23.068 68.3001 22.744 69.2601 22.552C70.2201 22.336 71.2161 22.228 72.2481 22.228C72.9441 22.228 73.5561 22.264 74.0841 22.336C74.6361 22.384 75.0801 22.456 75.4161 22.552V22.048C75.4161 21.136 75.1401 20.404 74.5881 19.852C74.0361 19.3 73.0761 19.024 71.7081 19.024C70.7961 19.024 69.8961 19.096 69.0081 19.24C68.1201 19.36 67.3521 19.54 66.7041 19.78L66.0201 15.46C66.3321 15.364 66.7161 15.268 67.1721 15.172C67.6521 15.052 68.1681 14.956 68.7201 14.884C69.2721 14.788 69.8481 14.716 70.4481 14.668C71.0721 14.596 71.6961 14.56 72.3201 14.56ZM92.9745 34.36C91.4145 34.336 90.1425 34.168 89.1585 33.856C88.1985 33.544 87.4305 33.112 86.8545 32.56C86.3025 31.984 85.9185 31.3 85.7025 30.508C85.5105 29.692 85.4145 28.78 85.4145 27.772V6.928L90.7785 6.064V26.692C90.7785 27.172 90.8145 27.604 90.8865 27.988C90.9585 28.372 91.0905 28.696 91.2825 28.96C91.4985 29.224 91.7985 29.44 92.1825 29.608C92.5665 29.776 93.0825 29.884 93.7305 29.932L92.9745 34.36ZM95.9052 24.676C95.9052 22.996 96.1572 21.532 96.6612 20.284C97.1892 19.012 97.8732 17.956 98.7132 17.116C99.5532 16.276 100.513 15.64 101.593 15.208C102.697 14.776 103.825 14.56 104.977 14.56C107.665 14.56 109.789 15.388 111.349 17.044C112.909 18.676 113.689 21.088 113.689 24.28C113.689 24.592 113.677 24.94 113.653 25.324C113.629 25.684 113.605 26.008 113.581 26.296H101.413C101.533 27.4 102.049 28.276 102.961 28.924C103.873 29.572 105.097 29.896 106.633 29.896C107.617 29.896 108.577 29.812 109.513 29.644C110.473 29.452 111.253 29.224 111.853 28.96L112.573 33.316C112.285 33.46 111.901 33.604 111.421 33.748C110.941 33.892 110.401 34.012 109.801 34.108C109.225 34.228 108.601 34.324 107.929 34.396C107.257 34.468 106.585 34.504 105.913 34.504C104.209 34.504 102.721 34.252 101.449 33.748C100.201 33.244 99.1572 32.56 98.3172 31.696C97.5012 30.808 96.8892 29.764 96.4812 28.564C96.0972 27.364 95.9052 26.068 95.9052 24.676ZM108.505 22.624C108.481 22.168 108.397 21.724 108.253 21.292C108.133 20.86 107.929 20.476 107.641 20.14C107.377 19.804 107.029 19.528 106.597 19.312C106.189 19.096 105.673 18.988 105.049 18.988C104.449 18.988 103.933 19.096 103.501 19.312C103.069 19.504 102.709 19.768 102.421 20.104C102.133 20.44 101.905 20.836 101.737 21.292C101.593 21.724 101.485 22.168 101.413 22.624H108.505Z" fill="white"/>
<path d="M130.357 13.372C127.741 13.372 125.845 14.104 124.669 15.568C123.517 17.008 122.941 18.988 122.941 21.508C122.941 22.732 123.085 23.848 123.373 24.856C123.661 25.84 124.093 26.692 124.669 27.412C125.245 28.132 125.965 28.696 126.829 29.104C127.693 29.488 128.701 29.68 129.853 29.68C130.477 29.68 131.005 29.668 131.437 29.644C131.893 29.62 132.289 29.572 132.625 29.5V20.824H138.241V33.172C137.569 33.436 136.489 33.712 135.001 34C133.513 34.312 131.677 34.468 129.493 34.468C127.621 34.468 125.917 34.18 124.381 33.604C122.869 33.028 121.573 32.188 120.493 31.084C119.413 29.98 118.573 28.624 117.973 27.016C117.397 25.408 117.109 23.572 117.109 21.508C117.109 19.42 117.433 17.572 118.081 15.964C118.729 14.356 119.617 13 120.745 11.896C121.873 10.768 123.193 9.916 124.705 9.34C126.241 8.764 127.873 8.476 129.601 8.476C130.777 8.476 131.833 8.56 132.769 8.728C133.729 8.872 134.545 9.052 135.217 9.268C135.913 9.46 136.477 9.664 136.909 9.88C137.365 10.096 137.689 10.264 137.881 10.384L136.261 14.884C135.493 14.476 134.605 14.128 133.597 13.84C132.613 13.528 131.533 13.372 130.357 13.372Z" fill="app-theme"/>
<path d="M159.914 21.195C159.333 21.195 158.792 21.091 158.289 20.883C157.795 20.675 157.362 20.3717 156.989 19.973C156.625 19.5743 156.335 19.0847 156.118 18.504C155.91 17.9147 155.806 17.243 155.806 16.489C155.806 15.735 155.919 15.0677 156.144 14.487C156.378 13.8977 156.686 13.4037 157.067 13.005C157.448 12.6063 157.89 12.3073 158.393 12.108C158.896 11.9 159.42 11.796 159.966 11.796C160.304 11.796 160.612 11.8177 160.889 11.861C161.166 11.9043 161.409 11.9607 161.617 12.03C161.825 12.0907 162.003 12.1557 162.15 12.225C162.297 12.2857 162.41 12.342 162.488 12.394L162.202 13.161C161.985 13.031 161.708 12.9053 161.37 12.784C161.041 12.654 160.629 12.589 160.135 12.589C159.572 12.589 159.078 12.6843 158.653 12.875C158.237 13.0657 157.886 13.3343 157.6 13.681C157.314 14.0277 157.097 14.4393 156.95 14.916C156.811 15.3927 156.742 15.9213 156.742 16.502C156.742 17.1 156.811 17.6417 156.95 18.127C157.097 18.6037 157.31 19.011 157.587 19.349C157.864 19.687 158.202 19.947 158.601 20.129C159.008 20.311 159.472 20.402 159.992 20.402C160.564 20.402 161.041 20.35 161.422 20.246C161.812 20.1333 162.107 20.0207 162.306 19.908L162.553 20.662C162.492 20.7053 162.388 20.7573 162.241 20.818C162.094 20.87 161.907 20.9263 161.682 20.987C161.457 21.0477 161.197 21.0953 160.902 21.13C160.607 21.1733 160.278 21.195 159.914 21.195ZM168.616 15.358C168.356 15.67 168.053 16.0643 167.706 16.541C167.368 17.0177 167.021 17.5203 166.666 18.049C166.319 18.5777 165.986 19.102 165.665 19.622C165.344 20.142 165.067 20.6013 164.833 21H164.04V14.279H164.872V19.661C165.08 19.2883 165.336 18.8593 165.639 18.374C165.951 17.88 166.28 17.386 166.627 16.892C166.974 16.3893 167.32 15.9083 167.667 15.449C168.022 14.9897 168.352 14.5997 168.655 14.279H169.448V21H168.616V15.358ZM174.464 21.143C173.944 21.143 173.485 21.0607 173.086 20.896C172.688 20.7313 172.354 20.4973 172.085 20.194C171.825 19.882 171.626 19.5137 171.487 19.089C171.349 18.6557 171.279 18.179 171.279 17.659C171.279 17.1303 171.349 16.6493 171.487 16.216C171.635 15.7827 171.843 15.41 172.111 15.098C172.38 14.786 172.705 14.5477 173.086 14.383C173.468 14.2097 173.897 14.123 174.373 14.123C174.737 14.123 175.075 14.1533 175.387 14.214C175.708 14.2747 175.955 14.3527 176.128 14.448L175.907 15.176C175.734 15.0893 175.539 15.02 175.322 14.968C175.106 14.916 174.815 14.89 174.451 14.89C173.706 14.89 173.138 15.1327 172.748 15.618C172.367 16.0947 172.176 16.775 172.176 17.659C172.176 18.0577 172.22 18.426 172.306 18.764C172.393 19.0933 172.532 19.3793 172.722 19.622C172.922 19.856 173.173 20.0423 173.476 20.181C173.788 20.311 174.165 20.376 174.607 20.376C174.971 20.376 175.275 20.337 175.517 20.259C175.769 20.1723 175.951 20.0987 176.063 20.038L176.245 20.766C176.089 20.8527 175.842 20.935 175.504 21.013C175.175 21.0997 174.828 21.143 174.464 21.143ZM182.181 14.279V14.994H179.971V21H179.126V14.994H176.929V14.279H182.181ZM183.086 17.633C183.086 17.0437 183.168 16.5323 183.333 16.099C183.506 15.657 183.727 15.2887 183.996 14.994C184.273 14.6993 184.585 14.4827 184.932 14.344C185.287 14.1967 185.651 14.123 186.024 14.123C186.847 14.123 187.502 14.3917 187.987 14.929C188.481 15.4663 188.728 16.294 188.728 17.412C188.728 17.4813 188.724 17.5507 188.715 17.62C188.715 17.6893 188.711 17.7543 188.702 17.815H183.983C184.009 18.6383 184.213 19.271 184.594 19.713C184.975 20.155 185.582 20.376 186.414 20.376C186.873 20.376 187.237 20.3327 187.506 20.246C187.775 20.1593 187.97 20.0857 188.091 20.025L188.247 20.753C188.126 20.8223 187.896 20.9047 187.558 21C187.229 21.0953 186.839 21.143 186.388 21.143C185.799 21.143 185.296 21.0563 184.88 20.883C184.464 20.7097 184.122 20.467 183.853 20.155C183.584 19.843 183.389 19.4747 183.268 19.05C183.147 18.6167 183.086 18.1443 183.086 17.633ZM187.857 17.1C187.84 16.398 187.675 15.852 187.363 15.462C187.051 15.072 186.609 14.877 186.037 14.877C185.734 14.877 185.461 14.9377 185.218 15.059C184.984 15.1803 184.776 15.345 184.594 15.553C184.421 15.7523 184.282 15.9863 184.178 16.255C184.083 16.5237 184.026 16.8053 184.009 17.1H187.857ZM193.796 20.064C193.744 19.934 193.666 19.7563 193.562 19.531C193.458 19.297 193.341 19.0413 193.211 18.764C193.09 18.478 192.955 18.179 192.808 17.867C192.661 17.5463 192.513 17.2387 192.366 16.944C192.227 16.6493 192.093 16.372 191.963 16.112C191.833 15.852 191.72 15.6397 191.625 15.475C191.512 16.4717 191.43 17.4207 191.378 18.322C191.326 19.2147 191.283 20.1073 191.248 21H190.455C190.49 19.882 190.546 18.7553 190.624 17.62C190.711 16.4847 190.819 15.371 190.949 14.279H191.82C191.933 14.461 192.076 14.721 192.249 15.059C192.431 15.397 192.626 15.7827 192.834 16.216C193.051 16.6407 193.272 17.1043 193.497 17.607C193.731 18.101 193.965 18.6037 194.199 19.115C194.433 18.6037 194.663 18.101 194.888 17.607C195.122 17.1043 195.343 16.6407 195.551 16.216C195.768 15.7827 195.963 15.397 196.136 15.059C196.309 14.721 196.457 14.461 196.578 14.279H197.436C197.566 15.371 197.67 16.4847 197.748 17.62C197.835 18.7553 197.895 19.882 197.93 21H197.124C197.089 20.1073 197.046 19.2147 196.994 18.322C196.942 17.4207 196.86 16.4717 196.747 15.475C196.652 15.6483 196.539 15.865 196.409 16.125C196.279 16.3763 196.14 16.6493 195.993 16.944C195.854 17.2387 195.711 17.5463 195.564 17.867C195.417 18.179 195.278 18.478 195.148 18.764C195.027 19.0413 194.914 19.297 194.81 19.531C194.706 19.7563 194.628 19.934 194.576 20.064H193.796ZM202.125 20.389C202.454 20.389 202.74 20.3803 202.983 20.363C203.234 20.337 203.446 20.3067 203.62 20.272V17.906C203.524 17.8627 203.373 17.8193 203.165 17.776C202.957 17.724 202.671 17.698 202.307 17.698C202.099 17.698 201.882 17.7153 201.657 17.75C201.431 17.776 201.223 17.841 201.033 17.945C200.842 18.0403 200.686 18.1747 200.565 18.348C200.443 18.5213 200.383 18.751 200.383 19.037C200.383 19.2883 200.422 19.5007 200.5 19.674C200.586 19.8473 200.703 19.986 200.851 20.09C201.007 20.194 201.189 20.272 201.397 20.324C201.613 20.3673 201.856 20.389 202.125 20.389ZM202.047 14.123C202.489 14.123 202.861 14.188 203.165 14.318C203.477 14.4393 203.728 14.6127 203.919 14.838C204.109 15.0547 204.248 15.3147 204.335 15.618C204.421 15.9213 204.465 16.2507 204.465 16.606V20.844C204.378 20.87 204.252 20.9003 204.088 20.935C203.923 20.961 203.732 20.9913 203.516 21.026C203.299 21.0607 203.056 21.0867 202.788 21.104C202.528 21.13 202.259 21.143 201.982 21.143C201.626 21.143 201.297 21.104 200.994 21.026C200.699 20.948 200.439 20.8267 200.214 20.662C199.997 20.4887 199.824 20.272 199.694 20.012C199.572 19.7433 199.512 19.4183 199.512 19.037C199.512 18.673 199.581 18.361 199.72 18.101C199.858 17.841 200.053 17.6287 200.305 17.464C200.556 17.2907 200.855 17.165 201.202 17.087C201.548 17.009 201.925 16.97 202.333 16.97C202.454 16.97 202.58 16.9787 202.71 16.996C202.848 17.0047 202.978 17.022 203.1 17.048C203.23 17.0653 203.338 17.087 203.425 17.113C203.52 17.1303 203.585 17.1477 203.62 17.165V16.749C203.62 16.515 203.602 16.2897 203.568 16.073C203.533 15.8477 203.455 15.6483 203.334 15.475C203.221 15.293 203.056 15.15 202.84 15.046C202.632 14.9333 202.354 14.877 202.008 14.877C201.514 14.877 201.145 14.9117 200.903 14.981C200.66 15.0503 200.482 15.1067 200.37 15.15L200.253 14.409C200.4 14.3397 200.625 14.2747 200.929 14.214C201.241 14.1533 201.613 14.123 202.047 14.123ZM158.107 29.994V30.267C158.107 30.527 158.103 30.813 158.094 31.125C158.085 31.4283 158.068 31.7403 158.042 32.061C158.016 32.3817 157.973 32.7023 157.912 33.023C157.86 33.335 157.791 33.6297 157.704 33.907C157.609 34.193 157.487 34.466 157.34 34.726C157.201 34.9773 157.032 35.2027 156.833 35.402C156.642 35.5927 156.417 35.753 156.157 35.883C155.906 36.0043 155.62 36.0823 155.299 36.117L155.182 35.415C155.615 35.3197 155.962 35.142 156.222 34.882C156.491 34.622 156.712 34.2537 156.885 33.777C157.058 33.3003 157.167 32.7543 157.21 32.139C157.262 31.515 157.288 30.8347 157.288 30.098V29.279H161.422V36H160.577V29.994H158.107ZM169.392 32.646C169.392 33.1747 169.314 33.6557 169.158 34.089C169.011 34.5223 168.798 34.8907 168.521 35.194C168.252 35.4973 167.932 35.7357 167.559 35.909C167.186 36.0737 166.775 36.156 166.324 36.156C165.873 36.156 165.462 36.0737 165.089 35.909C164.716 35.7357 164.391 35.4973 164.114 35.194C163.845 34.8907 163.633 34.5223 163.477 34.089C163.33 33.6557 163.256 33.1747 163.256 32.646C163.256 32.1173 163.33 31.6363 163.477 31.203C163.633 30.7697 163.845 30.4013 164.114 30.098C164.391 29.786 164.716 29.5477 165.089 29.383C165.462 29.2097 165.873 29.123 166.324 29.123C166.775 29.123 167.186 29.2097 167.559 29.383C167.932 29.5477 168.252 29.786 168.521 30.098C168.798 30.4013 169.011 30.7697 169.158 31.203C169.314 31.6363 169.392 32.1173 169.392 32.646ZM168.495 32.646C168.495 31.8053 168.3 31.138 167.91 30.644C167.52 30.1413 166.991 29.89 166.324 29.89C165.657 29.89 165.128 30.1413 164.738 30.644C164.348 31.138 164.153 31.8053 164.153 32.646C164.153 33.4867 164.348 34.154 164.738 34.648C165.128 35.142 165.657 35.389 166.324 35.389C166.991 35.389 167.52 35.142 167.91 34.648C168.3 34.154 168.495 33.4867 168.495 32.646ZM172.967 33.257C172.837 33.4563 172.694 33.673 172.538 33.907C172.391 34.141 172.244 34.3793 172.096 34.622C171.958 34.8647 171.823 35.1073 171.693 35.35C171.563 35.584 171.455 35.8007 171.368 36H170.497C170.723 35.4887 170.996 34.973 171.316 34.453C171.637 33.933 171.936 33.478 172.213 33.088C172.04 33.036 171.871 32.9623 171.706 32.867C171.55 32.7717 171.407 32.6503 171.277 32.503C171.156 32.3557 171.056 32.1823 170.978 31.983C170.9 31.775 170.861 31.541 170.861 31.281C170.861 30.9083 170.931 30.5877 171.069 30.319C171.217 30.0503 171.412 29.8293 171.654 29.656C171.906 29.4827 172.2 29.3527 172.538 29.266C172.885 29.1793 173.253 29.136 173.643 29.136C173.817 29.136 174.007 29.1447 174.215 29.162C174.432 29.1793 174.644 29.2053 174.852 29.24C175.069 29.266 175.268 29.2963 175.45 29.331C175.632 29.3657 175.784 29.4003 175.905 29.435V36H175.06V33.296H173.851C173.661 33.296 173.487 33.296 173.331 33.296C173.184 33.2873 173.063 33.2743 172.967 33.257ZM175.06 30.007C174.956 29.981 174.787 29.955 174.553 29.929C174.319 29.8943 174.02 29.877 173.656 29.877C173.414 29.877 173.175 29.903 172.941 29.955C172.716 29.9983 172.512 30.0763 172.33 30.189C172.148 30.3017 172.001 30.449 171.888 30.631C171.784 30.8043 171.732 31.021 171.732 31.281C171.732 31.5323 171.78 31.7447 171.875 31.918C171.971 32.0827 172.105 32.217 172.278 32.321C172.452 32.4163 172.66 32.4857 172.902 32.529C173.154 32.5723 173.431 32.594 173.734 32.594H175.06V30.007ZM180.133 29.994V30.267C180.133 30.527 180.129 30.813 180.12 31.125C180.112 31.4283 180.094 31.7403 180.068 32.061C180.042 32.3817 179.999 32.7023 179.938 33.023C179.886 33.335 179.817 33.6297 179.73 33.907C179.635 34.193 179.514 34.466 179.366 34.726C179.228 34.9773 179.059 35.2027 178.859 35.402C178.669 35.5927 178.443 35.753 178.183 35.883C177.932 36.0043 177.646 36.0823 177.325 36.117L177.208 35.415C177.642 35.3197 177.988 35.142 178.248 34.882C178.517 34.622 178.738 34.2537 178.911 33.777C179.085 33.3003 179.193 32.7543 179.236 32.139C179.288 31.515 179.314 30.8347 179.314 30.098V29.279H183.448V36H182.603V29.994H180.133ZM185.685 29.279H186.53V31.97C186.686 31.9267 186.916 31.8833 187.219 31.84C187.531 31.788 187.852 31.762 188.181 31.762C188.545 31.762 188.888 31.801 189.208 31.879C189.529 31.957 189.811 32.0827 190.053 32.256C190.296 32.4293 190.487 32.6547 190.625 32.932C190.773 33.2093 190.846 33.5473 190.846 33.946C190.846 34.3447 190.773 34.6827 190.625 34.96C190.487 35.2373 190.292 35.467 190.04 35.649C189.798 35.8223 189.503 35.948 189.156 36.026C188.818 36.104 188.454 36.143 188.064 36.143C187.83 36.143 187.592 36.1343 187.349 36.117C187.115 36.0997 186.894 36.078 186.686 36.052C186.478 36.026 186.288 35.9957 186.114 35.961C185.941 35.9263 185.798 35.8873 185.685 35.844V29.279ZM188.064 35.389C188.645 35.389 189.109 35.2807 189.455 35.064C189.802 34.8387 189.975 34.466 189.975 33.946C189.975 33.7033 189.928 33.491 189.832 33.309C189.737 33.127 189.607 32.9797 189.442 32.867C189.286 32.7457 189.096 32.659 188.87 32.607C188.654 32.5463 188.415 32.516 188.155 32.516C187.869 32.516 187.583 32.529 187.297 32.555C187.011 32.581 186.756 32.633 186.53 32.711V35.259C186.643 35.285 186.842 35.3153 187.128 35.35C187.414 35.376 187.726 35.389 188.064 35.389ZM197.681 36H196.836V32.867H193.183V36H192.338V29.279H193.183V32.152H196.836V29.279H197.681V36ZM205.65 32.646C205.65 33.1747 205.572 33.6557 205.416 34.089C205.268 34.5223 205.056 34.8907 204.779 35.194C204.51 35.4973 204.189 35.7357 203.817 35.909C203.444 36.0737 203.032 36.156 202.582 36.156C202.131 36.156 201.719 36.0737 201.347 35.909C200.974 35.7357 200.649 35.4973 200.372 35.194C200.103 34.8907 199.891 34.5223 199.735 34.089C199.587 33.6557 199.514 33.1747 199.514 32.646C199.514 32.1173 199.587 31.6363 199.735 31.203C199.891 30.7697 200.103 30.4013 200.372 30.098C200.649 29.786 200.974 29.5477 201.347 29.383C201.719 29.2097 202.131 29.123 202.582 29.123C203.032 29.123 203.444 29.2097 203.817 29.383C204.189 29.5477 204.51 29.786 204.779 30.098C205.056 30.4013 205.268 30.7697 205.416 31.203C205.572 31.6363 205.65 32.1173 205.65 32.646ZM204.753 32.646C204.753 31.8053 204.558 31.138 204.168 30.644C203.778 30.1413 203.249 29.89 202.582 29.89C201.914 29.89 201.386 30.1413 200.996 30.644C200.606 31.138 200.411 31.8053 200.411 32.646C200.411 33.4867 200.606 34.154 200.996 34.648C201.386 35.142 201.914 35.389 202.582 35.389C203.249 35.389 203.778 35.142 204.168 34.648C204.558 34.154 204.753 33.4867 204.753 32.646ZM210.265 36.143C209.745 36.143 209.286 36.0607 208.887 35.896C208.489 35.7313 208.155 35.4973 207.886 35.194C207.626 34.882 207.427 34.5137 207.288 34.089C207.15 33.6557 207.08 33.179 207.08 32.659C207.08 32.1303 207.15 31.6493 207.288 31.216C207.436 30.7827 207.644 30.41 207.912 30.098C208.181 29.786 208.506 29.5477 208.887 29.383C209.269 29.2097 209.698 29.123 210.174 29.123C210.538 29.123 210.876 29.1533 211.188 29.214C211.509 29.2747 211.756 29.3527 211.929 29.448L211.708 30.176C211.535 30.0893 211.34 30.02 211.123 29.968C210.907 29.916 210.616 29.89 210.252 29.89C209.507 29.89 208.939 30.1327 208.549 30.618C208.168 31.0947 207.977 31.775 207.977 32.659C207.977 33.0577 208.021 33.426 208.107 33.764C208.194 34.0933 208.333 34.3793 208.523 34.622C208.723 34.856 208.974 35.0423 209.277 35.181C209.589 35.311 209.966 35.376 210.408 35.376C210.772 35.376 211.076 35.337 211.318 35.259C211.57 35.1723 211.752 35.0987 211.864 35.038L212.046 35.766C211.89 35.8527 211.643 35.935 211.305 36.013C210.976 36.0997 210.629 36.143 210.265 36.143ZM217.982 29.279V29.994H215.772V36H214.927V29.994H212.73V29.279H217.982ZM223.866 30.358C223.606 30.67 223.303 31.0643 222.956 31.541C222.618 32.0177 222.271 32.5203 221.916 33.049C221.569 33.5777 221.236 34.102 220.915 34.622C220.594 35.142 220.317 35.6013 220.083 36H219.29V29.279H220.122V34.661C220.33 34.2883 220.586 33.8593 220.889 33.374C221.201 32.88 221.53 32.386 221.877 31.892C222.224 31.3893 222.57 30.9083 222.917 30.449C223.272 29.9897 223.602 29.5997 223.905 29.279H224.698V36H223.866V30.358Z" fill="#A2A2A2"/>
<path d="M9.76681 52.796C9.76681 51.644 9.34281 51.068 8.49481 51.068C8.31081 51.068 8.12681 51.092 7.94281 51.14C7.76681 51.188 7.62281 51.248 7.51081 51.32V54.572C7.59881 54.588 7.71081 54.604 7.84681 54.62C7.98281 54.628 8.13081 54.632 8.29081 54.632C8.77881 54.632 9.14681 54.464 9.39481 54.128C9.64281 53.792 9.76681 53.348 9.76681 52.796ZM11.5908 52.844C11.5908 53.348 11.5148 53.804 11.3628 54.212C11.2188 54.62 11.0068 54.968 10.7268 55.256C10.4468 55.544 10.1028 55.768 9.69481 55.928C9.28681 56.08 8.82281 56.156 8.30281 56.156C8.08681 56.156 7.85881 56.144 7.61881 56.12C7.38681 56.104 7.15481 56.08 6.92281 56.048C6.69881 56.016 6.48281 55.98 6.27481 55.94C6.06681 55.892 5.88281 55.844 5.72281 55.796V46.976L7.51081 46.688V49.832C7.71081 49.744 7.91881 49.676 8.13481 49.628C8.35081 49.58 8.58281 49.556 8.83081 49.556C9.27881 49.556 9.67481 49.636 10.0188 49.796C10.3628 49.948 10.6508 50.168 10.8828 50.456C11.1148 50.744 11.2908 51.092 11.4108 51.5C11.5308 51.9 11.5908 52.348 11.5908 52.844ZM18.4049 49.688C18.0449 50.904 17.6689 52.044 17.2769 53.108C16.8849 54.172 16.4569 55.204 15.9929 56.204C15.8249 56.564 15.6569 56.868 15.4889 57.116C15.3209 57.372 15.1369 57.58 14.9369 57.74C14.7369 57.908 14.5089 58.028 14.2529 58.1C14.0049 58.18 13.7129 58.22 13.3769 58.22C13.0969 58.22 12.8369 58.192 12.5969 58.136C12.3649 58.088 12.1729 58.032 12.0209 57.968L12.3329 56.54C12.5169 56.604 12.6809 56.648 12.8249 56.672C12.9689 56.696 13.1209 56.708 13.2809 56.708C13.6009 56.708 13.8449 56.62 14.0129 56.444C14.1889 56.276 14.3369 56.04 14.4569 55.736C14.0489 54.936 13.6409 54.04 13.2329 53.048C12.8249 52.048 12.4409 50.928 12.0809 49.688H13.9769C14.0569 50 14.1489 50.34 14.2529 50.708C14.3649 51.068 14.4809 51.436 14.6009 51.812C14.7209 52.18 14.8409 52.54 14.9609 52.892C15.0889 53.244 15.2089 53.564 15.3209 53.852C15.4249 53.564 15.5329 53.244 15.6449 52.892C15.7569 52.54 15.8649 52.18 15.9689 51.812C16.0809 51.436 16.1849 51.068 16.2809 50.708C16.3849 50.34 16.4769 50 16.5569 49.688H18.4049ZM26.4223 49.124C25.5503 49.124 24.9183 49.368 24.5263 49.856C24.1423 50.336 23.9503 50.996 23.9503 51.836C23.9503 52.244 23.9983 52.616 24.0943 52.952C24.1903 53.28 24.3343 53.564 24.5263 53.804C24.7183 54.044 24.9583 54.232 25.2463 54.368C25.5343 54.496 25.8703 54.56 26.2543 54.56C26.4623 54.56 26.6383 54.556 26.7823 54.548C26.9343 54.54 27.0663 54.524 27.1783 54.5V51.608H29.0503V55.724C28.8263 55.812 28.4663 55.904 27.9703 56C27.4743 56.104 26.8623 56.156 26.1343 56.156C25.5103 56.156 24.9423 56.06 24.4303 55.868C23.9263 55.676 23.4943 55.396 23.1343 55.028C22.7743 54.66 22.4943 54.208 22.2943 53.672C22.1023 53.136 22.0063 52.524 22.0063 51.836C22.0063 51.14 22.1143 50.524 22.3303 49.988C22.5463 49.452 22.8423 49 23.2183 48.632C23.5943 48.256 24.0343 47.972 24.5383 47.78C25.0503 47.588 25.5943 47.492 26.1703 47.492C26.5623 47.492 26.9143 47.52 27.2263 47.576C27.5463 47.624 27.8183 47.684 28.0423 47.756C28.2743 47.82 28.4623 47.888 28.6063 47.96C28.7583 48.032 28.8663 48.088 28.9303 48.128L28.3903 49.628C28.1343 49.492 27.8383 49.376 27.5023 49.28C27.1743 49.176 26.8143 49.124 26.4223 49.124ZM32.2591 56C31.8511 55.2 31.4351 54.264 31.0111 53.192C30.5951 52.12 30.1991 50.952 29.8231 49.688H31.7191C31.7991 50 31.8911 50.34 31.9951 50.708C32.1071 51.068 32.2191 51.436 32.3311 51.812C32.4511 52.18 32.5671 52.54 32.6791 52.892C32.7991 53.244 32.9151 53.564 33.0271 53.852C33.1311 53.564 33.2431 53.244 33.3631 52.892C33.4831 52.54 33.5991 52.18 33.7111 51.812C33.8311 51.436 33.9431 51.068 34.0471 50.708C34.1591 50.34 34.2551 50 34.3351 49.688H36.1831C35.8071 50.952 35.4071 52.12 34.9831 53.192C34.5671 54.264 34.1551 55.2 33.7471 56H32.2591ZM36.6767 52.892C36.6767 52.332 36.7607 51.844 36.9287 51.428C37.1047 51.004 37.3327 50.652 37.6127 50.372C37.8927 50.092 38.2127 49.88 38.5727 49.736C38.9407 49.592 39.3167 49.52 39.7007 49.52C40.5967 49.52 41.3047 49.796 41.8247 50.348C42.3447 50.892 42.6047 51.696 42.6047 52.76C42.6047 52.864 42.6007 52.98 42.5927 53.108C42.5847 53.228 42.5767 53.336 42.5687 53.432H38.5127C38.5527 53.8 38.7247 54.092 39.0287 54.308C39.3327 54.524 39.7407 54.632 40.2527 54.632C40.5807 54.632 40.9007 54.604 41.2127 54.548C41.5327 54.484 41.7927 54.408 41.9927 54.32L42.2327 55.772C42.1367 55.82 42.0087 55.868 41.8487 55.916C41.6887 55.964 41.5087 56.004 41.3087 56.036C41.1167 56.076 40.9087 56.108 40.6847 56.132C40.4607 56.156 40.2367 56.168 40.0127 56.168C39.4447 56.168 38.9487 56.084 38.5247 55.916C38.1087 55.748 37.7607 55.52 37.4807 55.232C37.2087 54.936 37.0047 54.588 36.8687 54.188C36.7407 53.788 36.6767 53.356 36.6767 52.892ZM40.8767 52.208C40.8687 52.056 40.8407 51.908 40.7927 51.764C40.7527 51.62 40.6847 51.492 40.5887 51.38C40.5007 51.268 40.3847 51.176 40.2407 51.104C40.1047 51.032 39.9327 50.996 39.7247 50.996C39.5247 50.996 39.3527 51.032 39.2087 51.104C39.0647 51.168 38.9447 51.256 38.8487 51.368C38.7527 51.48 38.6767 51.612 38.6207 51.764C38.5727 51.908 38.5367 52.056 38.5127 52.208H40.8767ZM45.5085 52.64C45.5085 53.64 45.9125 54.14 46.7205 54.14C46.9045 54.14 47.0765 54.116 47.2365 54.068C47.3965 54.02 47.5325 53.964 47.6445 53.9V51.044C47.5565 51.028 47.4525 51.016 47.3325 51.008C47.2125 50.992 47.0725 50.984 46.9125 50.984C46.4405 50.984 46.0885 51.14 45.8565 51.452C45.6245 51.764 45.5085 52.16 45.5085 52.64ZM49.4325 55.208C49.4325 56.24 49.1685 57.004 48.6405 57.5C48.1205 58.004 47.3125 58.256 46.2165 58.256C45.8325 58.256 45.4485 58.22 45.0645 58.148C44.6805 58.084 44.3245 57.996 43.9965 57.884L44.3085 56.384C44.5885 56.496 44.8805 56.584 45.1845 56.648C45.4965 56.712 45.8485 56.744 46.2405 56.744C46.7525 56.744 47.1125 56.632 47.3205 56.408C47.5365 56.184 47.6445 55.896 47.6445 55.544V55.316C47.4525 55.404 47.2525 55.472 47.0445 55.52C46.8445 55.56 46.6245 55.58 46.3845 55.58C45.5125 55.58 44.8445 55.324 44.3805 54.812C43.9165 54.292 43.6845 53.568 43.6845 52.64C43.6845 52.176 43.7565 51.756 43.9005 51.38C44.0445 50.996 44.2525 50.668 44.5245 50.396C44.8045 50.124 45.1445 49.916 45.5445 49.772C45.9445 49.62 46.3965 49.544 46.9005 49.544C47.1165 49.544 47.3365 49.556 47.5605 49.58C47.7925 49.596 48.0205 49.62 48.2445 49.652C48.4685 49.684 48.6805 49.724 48.8805 49.772C49.0885 49.812 49.2725 49.856 49.4325 49.904V55.208ZM53.5215 54.752C53.6975 54.752 53.8655 54.748 54.0255 54.74C54.1855 54.732 54.3135 54.72 54.4095 54.704V53.348C54.3375 53.332 54.2295 53.316 54.0855 53.3C53.9415 53.284 53.8095 53.276 53.6895 53.276C53.5215 53.276 53.3615 53.288 53.2095 53.312C53.0655 53.328 52.9375 53.364 52.8255 53.42C52.7135 53.476 52.6255 53.552 52.5615 53.648C52.4975 53.744 52.4655 53.864 52.4655 54.008C52.4655 54.288 52.5575 54.484 52.7415 54.596C52.9335 54.7 53.1935 54.752 53.5215 54.752ZM53.3775 49.52C53.9055 49.52 54.3455 49.58 54.6975 49.7C55.0495 49.82 55.3295 49.992 55.5375 50.216C55.7535 50.44 55.9055 50.712 55.9935 51.032C56.0815 51.352 56.1255 51.708 56.1255 52.1V55.82C55.8695 55.876 55.5135 55.94 55.0575 56.012C54.6015 56.092 54.0495 56.132 53.4015 56.132C52.9935 56.132 52.6215 56.096 52.2855 56.024C51.9575 55.952 51.6735 55.836 51.4335 55.676C51.1935 55.508 51.0095 55.292 50.8815 55.028C50.7535 54.764 50.6895 54.44 50.6895 54.056C50.6895 53.688 50.7615 53.376 50.9055 53.12C51.0575 52.864 51.2575 52.66 51.5055 52.508C51.7535 52.356 52.0375 52.248 52.3575 52.184C52.6775 52.112 53.0095 52.076 53.3535 52.076C53.5855 52.076 53.7895 52.088 53.9655 52.112C54.1495 52.128 54.2975 52.152 54.4095 52.184V52.016C54.4095 51.712 54.3175 51.468 54.1335 51.284C53.9495 51.1 53.6295 51.008 53.1735 51.008C52.8695 51.008 52.5695 51.032 52.2735 51.08C51.9775 51.12 51.7215 51.18 51.5055 51.26L51.2775 49.82C51.3815 49.788 51.5095 49.756 51.6615 49.724C51.8215 49.684 51.9935 49.652 52.1775 49.628C52.3615 49.596 52.5535 49.572 52.7535 49.556C52.9615 49.532 53.1695 49.52 53.3775 49.52ZM59.5543 54.716C59.8823 54.716 60.1143 54.684 60.2503 54.62C60.3863 54.556 60.4543 54.432 60.4543 54.248C60.4543 54.104 60.3663 53.98 60.1903 53.876C60.0143 53.764 59.7463 53.64 59.3863 53.504C59.1063 53.4 58.8503 53.292 58.6183 53.18C58.3943 53.068 58.2023 52.936 58.0423 52.784C57.8823 52.624 57.7583 52.436 57.6703 52.22C57.5823 52.004 57.5383 51.744 57.5383 51.44C57.5383 50.848 57.7583 50.38 58.1983 50.036C58.6383 49.692 59.2423 49.52 60.0103 49.52C60.3943 49.52 60.7623 49.556 61.1143 49.628C61.4663 49.692 61.7463 49.764 61.9543 49.844L61.6423 51.236C61.4343 51.164 61.2063 51.1 60.9583 51.044C60.7183 50.988 60.4463 50.96 60.1423 50.96C59.5823 50.96 59.3023 51.116 59.3023 51.428C59.3023 51.5 59.3143 51.564 59.3383 51.62C59.3623 51.676 59.4103 51.732 59.4823 51.788C59.5543 51.836 59.6503 51.892 59.7703 51.956C59.8983 52.012 60.0583 52.076 60.2503 52.148C60.6423 52.292 60.9663 52.436 61.2223 52.58C61.4783 52.716 61.6783 52.868 61.8223 53.036C61.9743 53.196 62.0783 53.376 62.1343 53.576C62.1983 53.776 62.2303 54.008 62.2303 54.272C62.2303 54.896 61.9943 55.368 61.5223 55.688C61.0583 56.008 60.3983 56.168 59.5423 56.168C58.9823 56.168 58.5143 56.12 58.1383 56.024C57.7703 55.928 57.5143 55.848 57.3703 55.784L57.6703 54.332C57.9743 54.452 58.2863 54.548 58.6063 54.62C58.9263 54.684 59.2423 54.716 59.5543 54.716ZM70.3614 56.168C69.0094 56.168 67.9774 55.792 67.2654 55.04C66.5614 54.288 66.2094 53.22 66.2094 51.836C66.2094 51.148 66.3174 50.536 66.5334 50C66.7494 49.456 67.0454 49 67.4214 48.632C67.7974 48.256 68.2454 47.972 68.7654 47.78C69.2854 47.588 69.8494 47.492 70.4574 47.492C70.8094 47.492 71.1294 47.52 71.4174 47.576C71.7054 47.624 71.9574 47.684 72.1734 47.756C72.3894 47.82 72.5694 47.888 72.7134 47.96C72.8574 48.032 72.9614 48.088 73.0254 48.128L72.4854 49.64C72.2294 49.504 71.9294 49.388 71.5854 49.292C71.2494 49.196 70.8654 49.148 70.4334 49.148C70.1454 49.148 69.8614 49.196 69.5814 49.292C69.3094 49.388 69.0654 49.544 68.8494 49.76C68.6414 49.968 68.4734 50.24 68.3454 50.576C68.2174 50.912 68.1534 51.32 68.1534 51.8C68.1534 52.184 68.1934 52.544 68.2734 52.88C68.3614 53.208 68.4974 53.492 68.6814 53.732C68.8734 53.972 69.1214 54.164 69.4254 54.308C69.7294 54.444 70.0974 54.512 70.5294 54.512C70.8014 54.512 71.0454 54.496 71.2614 54.464C71.4774 54.432 71.6694 54.396 71.8374 54.356C72.0054 54.308 72.1534 54.256 72.2814 54.2C72.4094 54.144 72.5254 54.092 72.6294 54.044L73.1454 55.544C72.8814 55.704 72.5094 55.848 72.0294 55.976C71.5494 56.104 70.9934 56.168 70.3614 56.168ZM79.994 52.832C79.994 53.328 79.922 53.784 79.778 54.2C79.634 54.608 79.426 54.96 79.154 55.256C78.882 55.544 78.554 55.768 78.17 55.928C77.794 56.088 77.37 56.168 76.898 56.168C76.434 56.168 76.01 56.088 75.626 55.928C75.25 55.768 74.926 55.544 74.654 55.256C74.382 54.96 74.17 54.608 74.018 54.2C73.866 53.784 73.79 53.328 73.79 52.832C73.79 52.336 73.866 51.884 74.018 51.476C74.178 51.068 74.394 50.72 74.666 50.432C74.946 50.144 75.274 49.92 75.65 49.76C76.034 49.6 76.45 49.52 76.898 49.52C77.354 49.52 77.77 49.6 78.146 49.76C78.53 49.92 78.858 50.144 79.13 50.432C79.402 50.72 79.614 51.068 79.766 51.476C79.918 51.884 79.994 52.336 79.994 52.832ZM78.17 52.832C78.17 52.28 78.058 51.848 77.834 51.536C77.618 51.216 77.306 51.056 76.898 51.056C76.49 51.056 76.174 51.216 75.95 51.536C75.726 51.848 75.614 52.28 75.614 52.832C75.614 53.384 75.726 53.824 75.95 54.152C76.174 54.472 76.49 54.632 76.898 54.632C77.306 54.632 77.618 54.472 77.834 54.152C78.058 53.824 78.17 53.384 78.17 52.832ZM82.7678 55.052C82.7678 55.412 82.6518 55.688 82.4198 55.88C82.1958 56.064 81.9398 56.156 81.6518 56.156C81.3638 56.156 81.1038 56.064 80.8718 55.88C80.6478 55.688 80.5358 55.412 80.5358 55.052C80.5358 54.692 80.6478 54.42 80.8718 54.236C81.1038 54.044 81.3638 53.948 81.6518 53.948C81.9398 53.948 82.1958 54.044 82.4198 54.236C82.6518 54.42 82.7678 54.692 82.7678 55.052Z" fill="app-theme"/>
<line x1="146.5" y1="45" x2="146.5" y2="4" stroke="#A1A1A1"/>
<circle cx="96" cy="58" r="4" fill="#42BBFF"/>
<circle cx="100" cy="46" r="4" fill="#FAD85D"/>
<circle cx="104" cy="54" r="4" fill="#F2A0FF"/>
<circle cx="92" cy="50" r="4" fill="#73FFCC"/>
</svg>
