<svg width="24" height="24" viewBox="0 0 24 24" fill="none" xmlns="http://www.w3.org/2000/svg">
<path fill-rule="evenodd" clip-rule="evenodd" d="M7.3586 3.23015C7.06449 3.01108 6.64624 3.03542 6.37972 3.30317L2.30194 7.39984L2.22952 7.48412C2.01234 7.77824 2.03751 8.19485 2.30439 8.4605L2.38868 8.53292C2.68279 8.7501 3.0994 8.72493 3.36505 8.45805L6.16116 5.64845V17.4506L6.16801 17.5524C6.21767 17.9185 6.53147 18.2006 6.91116 18.2006C7.32538 18.2006 7.66116 17.8648 7.66116 17.4506V5.64858L10.4575 8.45805L10.5414 8.53086C10.8346 8.74939 11.2513 8.72615 11.5182 8.4605C11.8117 8.16828 11.8128 7.69341 11.5206 7.39984L7.44283 3.30317L7.43763 3.29867C7.41474 3.27611 7.39041 3.255 7.36479 3.23551L7.3586 3.23015ZM17.5828 6.44462C17.5331 6.07854 17.2193 5.79639 16.8396 5.79639C16.4254 5.79639 16.0896 6.13217 16.0896 6.54639V18.3481L13.2933 15.5389L13.2093 15.4661C12.9162 15.2476 12.4995 15.2708 12.2326 15.5365C11.939 15.8287 11.9379 16.3036 12.2302 16.5972L16.3079 20.6938L16.3131 20.6983C16.336 20.7209 16.3604 20.742 16.386 20.7615L16.3922 20.7668C16.6863 20.9859 17.1045 20.9616 17.3711 20.6938L21.4488 16.5972L21.5213 16.5129C21.7384 16.2188 21.7133 15.8021 21.4464 15.5365C21.1528 15.2443 20.6779 15.2454 20.3857 15.5389L17.5896 18.3471V6.54639L17.5828 6.44462Z" fill="#1D2032"/>
</svg>
